
<svg id="Layer_1" data-name="Layer 1" xmlns="http://www.w3.org/2000/svg" viewBox="0 0 1080 1080"><defs><style>.cls-1{fill:#77b756;}.cls-2{fill:#5b308b;}.cls-3{fill:#2d6ef5;}.cls-4{fill:#eca139;}</style></defs><path class="cls-1" d="M454.5,988.29c-14.6-14.79-26.18-30.49-36.62-47-25.31-40.12-44-83.38-60-127.87-24.22-67.36-41.4-136.58-54.4-206.91Q292.24,545.56,285.68,484q-4.6-43.5-6.56-87.23c-1.54-34.56-2.06-69.12-.81-103.7,2-55.33,6.55-110.37,20.32-164.22,6.87-26.88,15.83-53,32.15-75.88a87.88,87.88,0,0,1,20.94-21.08c11-7.75,22.71-8.75,35-4,11.85,4.59,21.63,12.37,30.76,20.92,22.93,21.46,40,47.32,55,74.6C501.24,175.5,521.45,231,538.43,287.75q9.69,32.43,17.57,65.36a12,12,0,0,1-.63,7.79,1597.5,1597.5,0,0,0-73.85,231.78,1454.67,1454.67,0,0,0-29.3,160.44c-5.67,46.09-8.86,92.3-7.89,138.75.65,31.4,3.31,62.59,10,93.35C454.44,985.86,454.39,986.54,454.5,988.29Z"/><path class="cls-2" d="M546.41,1040.68c-11.66-3.06-18.55-11.51-23.75-21.55-9.33-18-14.1-37.47-17.54-57.26-7.48-43-8.19-86.28-5.28-129.62,12.33-183.91,60.56-358.42,138.87-524.86,23.23-49.38,51-96.2,85.46-138.71,14.18-17.46,29.24-34.1,49.21-45.3a54.63,54.63,0,0,1,21.42-7c13-1.32,21.93,5.22,28.86,15.12,9.24,13.21,13.65,28.49,17.46,43.87,10.35,41.79,11.79,84.38,10.75,127.13A1004.12,1004.12,0,0,1,842,416.79c-7.33,52.43-18,104.19-30.58,155.61-2.91,11.88-8,20.82-17.55,29.08-83.23,72.13-152.85,155.46-204.49,253.13-18.87,35.7-34.19,72.85-42.25,112.66-4.69,23.19-6.14,46.42-.68,69.72C546.74,1038.06,547.34,1039.23,546.41,1040.68Z"/><path class="cls-3" d="M450.53,1055c-19.34.15-36.24-5.18-52.55-12.76-30.3-14.09-56.4-34.28-81-56.54-57.2-51.84-103.79-112.41-144.56-177.59C120,724.27,78.18,635.51,51.09,540.18c-14.85-52.26-24.79-105.33-22.67-160,.88-22.66,3.66-45.08,14.22-65.68,12.55-24.5,34.55-35.1,61.73-30.67,26.95,4.39,50.33,16.73,72.65,31.56a398,398,0,0,1,43.38,34c2,1.74,3.23,3.46,3.27,6.38A1484.2,1484.2,0,0,0,235.6,522.14c12.34,98,32.7,194.25,64.94,287.77,19.93,57.8,43.71,113.86,76.81,165.55,16.34,25.52,34.63,49.48,58.45,68.65C440.24,1047.68,445,1050.9,450.53,1055Z"/><path class="cls-4" d="M1051.86,588.1c-.57,27.37-8.08,53.16-18,78.34-20.56,52-50,98.87-83.28,143.43-50.81,67.94-109.35,128.27-178,178.46-29.07,21.26-59.67,39.94-93.79,52.17-15.63,5.61-31.67,9.24-48.46,8.56-18.88-.78-29.82-11-32.13-29.76-2.92-23.65,1.9-46.32,8.77-68.65,12.48-40.57,31.95-77.88,54.67-113.5,59.5-93.26,132.9-173.62,223.07-238.15,26-18.59,53.48-34.62,83.6-45.71,14.94-5.5,30.28-9.2,46.3-9.57a53.33,53.33,0,0,1,13.05,1.34c12.81,2.89,20.83,12.46,23.14,26.91A111.7,111.7,0,0,1,1051.86,588.1Z"/></svg>
